<svg width="351" height="142" viewBox="0 0 351 142" fill="none" xmlns="http://www.w3.org/2000/svg">
<g clip-path="url(#clip0_50_1079)">
<path d="M269.596 119.677C261.843 123.149 251.63 127.031 244.25 120.984C242.014 119.117 240.225 117.027 238.808 114.675C244.66 108.217 250.139 101.199 254.5 93.8455C260.986 82.7587 265.048 69.9548 267.285 57.3749C269.447 45.1683 270.639 31.6551 266.949 19.5605C263.744 9.0337 256.028 0.597316 244.511 0.0373793C233.366 -0.522558 225.576 7.80184 221.402 17.2834C212.27 38.1877 212.158 64.3181 214.022 86.6783C214.73 94.8907 215.699 103.327 218.234 111.204C214.543 114.75 210.63 117.923 206.381 120.461C202.281 122.888 197.622 124.343 192.813 124.418C189.161 124.455 186.328 124.306 183.756 123.373C173.767 119.603 170.002 107.023 168.325 97.6157C165.157 79.959 165.343 60.5479 167.952 42.8912C169.033 35.5 171.046 24.8986 175.22 19.8591C177.83 16.6488 181.482 16.6488 183.309 19.5232C187.744 26.765 187.558 37.4412 186.663 46.4375C185.582 57.5616 182.601 69.1709 177.792 79.2498C175.78 83.468 173.357 87.3502 170.71 91.0831C171.754 97.6904 173.282 104.41 176.45 111.913C181.892 105.417 187.446 98.5863 191.434 91.0084C197.547 79.4737 201.386 66.5952 203.25 53.7167C204.964 41.9953 205.896 28.8928 201.722 17.5447C197.808 7.27923 189.235 -0.634545 177.643 0.0373793C166.014 0.634645 159.193 10.5642 155.428 20.4564C150.844 32.2897 149.651 45.5416 149.018 58.1215C148.458 68.5736 148.533 79.1378 149.614 89.6273C151.068 104.036 153.826 117.4 163.107 128.935C171.046 138.752 182.712 142.859 195.087 141.851C207.313 140.768 217.451 134.87 226.359 127.18C233.739 136.662 243.877 142.709 256.364 141.515C261.433 140.992 266.316 139.648 271.012 137.931V119.192C270.528 119.341 270.043 119.528 269.558 119.715L269.596 119.677ZM232.435 94.928C232.435 94.928 232.397 94.816 232.397 94.7787C229.751 77.01 229.863 57.7482 232.956 40.1289C234.224 33.0363 236.162 22.9201 241.045 18.59C242.386 17.3581 246.449 15.8276 249.319 22.0616C252.338 28.5195 252.04 38.7104 251.295 46.5121C250.251 56.6657 247.605 67.0432 243.691 76.4128C240.97 82.9454 237.205 88.806 232.919 94.3681C232.77 94.5547 232.621 94.7414 232.509 94.928H232.435Z" fill="#FFF186"/>
<path d="M85.3925 97.541V139.014H68.1351V99.4074C68.1351 94.032 65.7869 91.5683 61.6123 91.5683C57.4377 91.5683 54.1577 94.032 51.3622 99.8554V138.976H34.1048V99.3701C34.1048 93.9947 31.6448 91.531 27.4702 91.531C23.2956 91.531 20.0156 93.9947 17.332 99.818V138.939H0V77.9432H14.6856L15.1328 85.409C19.5683 79.2124 24.9356 76.5247 32.3903 76.5247C39.8449 76.5247 45.6967 79.4363 48.7158 85.185C53.375 78.9884 58.9659 76.5247 66.0851 76.5247C78.4597 76.5247 85.3179 83.7665 85.3179 97.429L85.3925 97.541Z" fill="#FFF186"/>
<path d="M91.5798 114.115V102.916C91.5798 85.4089 100.786 76.6366 119.236 76.6366C137.687 76.6366 146.893 85.4089 146.893 102.916V114.115C146.893 131.622 137.687 140.395 119.236 140.395C100.786 140.395 91.5798 131.622 91.5798 114.115ZM129.598 113.779V103.252C129.598 94.3679 126.579 90.635 119.199 90.635C111.819 90.635 108.837 94.3679 108.837 103.252V113.779C108.837 122.663 111.856 126.396 119.199 126.396C126.542 126.396 129.598 122.663 129.598 113.779Z" fill="#FFF186"/>
<path d="M277.274 78.0178H294.531V139.014H277.274V78.0178Z" fill="#FFF186"/>
<path d="M299.563 120.312H316.001C316.001 125.575 318.796 127.89 325.431 127.89C331.133 127.89 333.966 126.135 333.966 122.402C333.966 118.072 330.686 116.206 321.592 115.16C306.533 113.406 300.607 108.254 300.607 96.7198C300.607 83.5053 309.478 76.6367 325.468 76.6367C341.458 76.6367 349.733 83.4306 349.733 96.0479H333.295C333.295 91.2697 330.947 89.142 325.356 89.142C320.212 89.142 317.641 91.1204 317.641 94.6294C317.641 98.5862 320.772 100.341 329.643 101.386C345.036 103.14 351 108.852 351 120.648C351 133.974 342.614 140.395 325.356 140.395C308.099 140.395 299.563 133.862 299.563 120.312Z" fill="#FFF186"/>
<path d="M285.921 71.7466C291.685 71.7466 296.358 67.067 296.358 61.2944C296.358 55.5219 291.685 50.8423 285.921 50.8423C280.157 50.8423 275.485 55.5219 275.485 61.2944C275.485 67.067 280.157 71.7466 285.921 71.7466Z" fill="#FFF186"/>
</g>
<defs>
<clipPath id="clip0_50_1079">
<rect width="351" height="142" fill="white"/>
</clipPath>
</defs>
</svg>
